<svg xmlns="http://www.w3.org/2000/svg" xmlns:xlink="http://www.w3.org/1999/xlink" width="200" height="76.037" viewBox="0 0 200 76.037"><defs><style>.a{fill:none;}.b{clip-path:url(#a);}.c{fill:#dd1f26;}.d{fill:#fff;}</style><clipPath id="a"><rect class="a" width="200" height="76.037"/></clipPath></defs><g transform="translate(0)"><g transform="translate(100 38.018)"><g class="b" transform="translate(-100 -38.018)"><path class="c" d="M307.953,101a3.353,3.353,0,1,0,3.353,3.353A3.353,3.353,0,0,0,307.953,101" transform="translate(-217.31 -72.056)"/><path class="d" d="M561.862,130.9h-6.276a7.451,7.451,0,0,0-7.422,7.422v12.753a2.78,2.78,0,1,0,5.531,0V138.351a1.891,1.891,0,0,1,1.691-1.891h6.477a2.78,2.78,0,1,0,0-5.56" transform="translate(-391.064 -93.387)"/><path class="d" d="M442.742,133.68a2.78,2.78,0,0,0-2.751-2.78h-6.362a7.365,7.365,0,0,0-7.365,7.422v12.753a2.78,2.78,0,1,0,5.531,0V138.351a1.891,1.891,0,0,1,1.691-1.891h6.477a2.78,2.78,0,0,0,2.78-2.78" transform="translate(-304.098 -93.387)"/><path class="d" d="M472.3,130.9h-4.471a2.78,2.78,0,1,0,0,5.56h4.5a1.891,1.891,0,0,1,1.891,1.891v8.167a1.891,1.891,0,0,1-1.863,1.891H462.294a2.121,2.121,0,1,1,.057-4.213h7.193a2.78,2.78,0,1,0,0-5.56h-7.193a7.451,7.451,0,0,0-7.451,7.451v.344a7.422,7.422,0,0,0,7.422,7.422h10a7.394,7.394,0,0,0,7.422-7.394v-8.11a7.451,7.451,0,0,0-7.422-7.451" transform="translate(-324.538 -93.387)"/><path class="d" d="M309.508,130.9a2.78,2.78,0,0,0-2.808,2.808v17.338a2.78,2.78,0,0,0,2.808,2.808,2.706,2.706,0,0,0,2.722-2.808V133.737a2.706,2.706,0,0,0-2.722-2.808" transform="translate(-218.807 -93.387)"/><path class="d" d="M634.08,130.929a2.936,2.936,0,0,0-2.78,2.952v12.294c0,1.232-.6,2.235-1.576,2.235H619.407c-.774,0-1.29-.544-1.548-1.433v-.057h0a2.878,2.878,0,0,1-.057-.573V133.823a2.756,2.756,0,1,0-5.5,0v11.75a2.843,2.843,0,0,0,.029.4h0a3.658,3.658,0,0,0,.029.544,9.787,9.787,0,0,0,.43,2.35,7.045,7.045,0,0,0,6.62,4.986h10.116a1.863,1.863,0,1,1,0,3.725h-7.594a2.593,2.593,0,0,0-2.35,2.808,2.637,2.637,0,0,0,2.665,2.694h7.938c3.726-.344,6.648-3.84,6.648-7.881V133.88a2.893,2.893,0,0,0-2.751-2.952" transform="translate(-436.831 -93.387)"/><path class="d" d="M350.189,106.572H342.91a2.78,2.78,0,0,0-2.751,2.837,2.665,2.665,0,0,0,2.751,2.694h7.279a1.92,1.92,0,0,1,1.863,2.006v7.909a2.006,2.006,0,0,1-1.978,2.006H340.1a2.006,2.006,0,0,1-1.949-2.006V99.608a2.78,2.78,0,0,0-2.808-2.808,2.723,2.723,0,0,0-2.751,2.808V121.76a7.422,7.422,0,0,0,.8,3.554,7.336,7.336,0,0,0,6.563,4.241h10.231a7.336,7.336,0,0,0,6.563-4.241,6.747,6.747,0,0,0,.8-3.554v-7.623a7.4,7.4,0,0,0-7.394-7.566" transform="translate(-237.279 -69.059)"/><path class="d" d="M249.277,130.331h-8.826a2.006,2.006,0,0,1-1.949-2.006h0v-19.8a2.756,2.756,0,1,0-5.5,0v19.516c0,4.385,2.923,7.795,6.649,7.795h9.658a2.725,2.725,0,0,0,2.923-2.665,2.866,2.866,0,0,0-2.923-2.837" transform="translate(-166.228 -75.338)"/><path class="d" d="M77.674,27,72,22.016h0L48.73,1.5a5.961,5.961,0,0,0-8.4.516L20.187,24.882a23.1,23.1,0,0,0-2.751-.143,19.286,19.286,0,1,0,0,38.544,31.464,31.464,0,0,0,4.929-.516L35.748,74.545a5.961,5.961,0,0,0,8.4-.516L62.313,53.51v-20.4a5.388,5.388,0,1,1,10.775,0v8.081l5.1-5.817a5.961,5.961,0,0,0-.544-8.4M24.285,58.382a7.02,7.02,0,0,1-1.146.8l-.86.43a12.658,12.658,0,0,1-5.674.745,16.305,16.305,0,0,1-4.1-.745h-.086a16.363,16.363,0,0,1,5.015-31.982,12.772,12.772,0,0,1,5.76,1.06,3.842,3.842,0,0,1,2.321,3.439,4.327,4.327,0,0,1-.344,1.548c-.946,2.321-3.955,2.063-5.388,1.805a17.4,17.4,0,0,0-2.35-.315,8.8,8.8,0,0,0-8.8,8.8h0a8.8,8.8,0,0,0,12.237,8.11,3.676,3.676,0,0,1,4.585,1.949,3.267,3.267,0,0,1,.4,1.6A3.685,3.685,0,0,1,24.6,58.067l-.287.258M57.155,32.734,45.434,58.354a3.582,3.582,0,0,1-3.1,2.092h-.373a3.582,3.582,0,0,1-3.1-2.121L27.437,32.763a3.582,3.582,0,1,1,6.534-2.923l8.253,18.427L50.65,29.811a3.582,3.582,0,1,1,6.505,2.98" transform="translate(1.85 -0.007)"/></g></g></g></svg>